<svg id="svg" version="1.1" xmlns="http://www.w3.org/2000/svg" xmlns:xlink="http://www.w3.org/1999/xlink" width="400" height="362" viewBox="0, 0, 400,362"><g id="svgg"><path id="path0" d="M386.446 12.226 C 386.331 12.341,386.572 12.670,386.982 12.957 C 387.392 13.245,387.772 13.422,387.825 13.352 C 388.006 13.116,386.657 12.015,386.446 12.226 M184.296 25.634 C 184.204 25.784,184.616 25.924,185.211 25.946 C 185.929 25.973,186.130 25.883,185.809 25.680 C 185.206 25.298,184.516 25.277,184.296 25.634 M193.207 25.622 C 193.755 25.705,194.651 25.705,195.199 25.622 C 195.747 25.539,195.299 25.471,194.203 25.471 C 193.107 25.471,192.659 25.539,193.207 25.622 M210.236 25.622 C 210.784 25.705,211.680 25.705,212.228 25.622 C 212.776 25.539,212.328 25.471,211.232 25.471 C 210.136 25.471,209.687 25.539,210.236 25.622 M219.421 25.664 C 219.319 25.830,219.723 25.966,220.320 25.966 C 221.022 25.966,221.240 25.861,220.938 25.670 C 220.332 25.285,219.657 25.283,219.421 25.664 M172.902 27.481 C 172.600 27.673,172.819 27.778,173.521 27.778 C 174.117 27.778,174.522 27.642,174.419 27.476 C 174.184 27.095,173.508 27.097,172.902 27.481 M90.013 70.018 L 88.949 71.196 90.127 70.131 C 91.224 69.140,91.471 68.841,91.191 68.841 C 91.129 68.841,90.599 69.370,90.013 70.018 M78.261 83.025 C 77.563 83.637,77.321 83.972,77.721 83.769 C 78.383 83.434,80.024 81.864,79.676 81.899 C 79.595 81.907,78.958 82.414,78.261 83.025 M116.122 161.216 C 104.801 163.632,95.652 175.151,95.652 186.989 C 95.652 196.177,101.709 206.582,109.239 210.331 L 111.413 211.413 122.101 211.413 L 132.790 211.413 134.964 210.338 C 138.325 208.675,143.625 203.201,145.675 199.275 L 147.283 196.196 147.283 187.138 L 147.283 178.080 145.730 175.073 C 140.337 164.631,127.742 158.737,116.122 161.216 M262.194 161.280 C 260.544 162.239,260.507 162.788,260.507 186.232 C 260.507 210.329,260.519 210.479,262.506 211.234 C 263.097 211.459,271.959 211.594,286.051 211.594 C 300.143 211.594,309.005 211.459,309.595 211.234 C 311.582 210.479,311.594 210.329,311.594 186.232 C 311.594 162.634,311.563 162.184,309.837 161.261 C 308.819 160.716,263.133 160.734,262.194 161.280 M200.441 163.315 C 199.751 164.063,198.024 166.745,196.604 169.276 C 192.960 175.770,187.214 185.767,184.670 190.036 C 183.482 192.029,181.494 195.453,180.251 197.645 C 179.008 199.837,177.151 203.098,176.125 204.891 C 173.818 208.922,173.730 210.326,175.725 211.322 C 177.276 212.097,226.762 212.315,228.939 211.556 C 231.070 210.813,231.366 208.832,229.772 205.978 C 229.216 204.982,226.825 200.824,224.460 196.739 C 216.611 183.183,209.721 171.244,207.524 167.391 C 204.061 161.319,202.901 160.651,200.441 163.315 M362.324 162.591 C 362.341 163.385,363.033 163.912,363.038 163.134 C 363.041 162.686,362.880 162.319,362.681 162.319 C 362.482 162.319,362.321 162.441,362.324 162.591 M128.098 163.433 C 134.832 165.197,141.145 170.273,144.061 176.268 L 145.471 179.167 145.471 187.138 L 145.471 195.109 143.883 198.188 C 141.753 202.320,137.492 206.747,133.931 208.528 L 131.424 209.783 122.111 209.783 L 112.797 209.783 110.475 208.634 C 106.851 206.843,102.326 202.129,100.402 198.142 C 93.192 183.199,101.448 166.617,117.935 162.927 C 120.032 162.458,125.393 162.725,128.098 163.433 M309.219 163.486 C 309.714 164.194,309.783 166.961,309.783 186.232 C 309.783 205.503,309.714 208.270,309.219 208.977 L 308.655 209.783 286.211 209.783 C 264.251 209.783,263.753 209.767,263.043 209.058 C 262.044 208.059,261.892 164.901,262.883 163.486 L 263.447 162.681 286.051 162.681 L 308.655 162.681 309.219 163.486 M41.524 165.067 C 41.402 165.383,41.439 165.885,41.606 166.183 C 41.819 166.564,41.908 166.394,41.908 165.608 C 41.908 164.345,41.838 164.247,41.524 165.067 M204.653 166.608 C 205.239 167.537,206.365 169.438,207.156 170.833 C 207.946 172.228,210.433 176.549,212.681 180.435 C 229.323 209.198,228.826 208.293,228.383 208.995 C 227.732 210.028,226.709 210.072,202.681 210.109 C 173.133 210.154,175.110 210.702,179.206 203.605 C 180.523 201.323,182.866 197.255,184.414 194.565 C 185.961 191.875,189.065 186.495,191.311 182.609 C 193.556 178.723,196.600 173.424,198.074 170.833 C 201.971 163.985,202.704 163.515,204.653 166.608 M41.388 171.739 C 41.388 172.437,41.463 172.722,41.554 172.373 C 41.645 172.024,41.645 171.454,41.554 171.105 C 41.463 170.756,41.388 171.042,41.388 171.739 M40.330 187.138 C 40.332 188.333,40.399 188.779,40.480 188.128 C 40.561 187.476,40.559 186.498,40.476 185.954 C 40.394 185.409,40.328 185.942,40.330 187.138 M41.524 208.546 C 41.402 208.862,41.439 209.363,41.606 209.661 C 41.819 210.042,41.908 209.873,41.908 209.086 C 41.908 207.824,41.838 207.726,41.524 208.546 M362.571 211.374 C 362.423 211.752,362.387 212.146,362.491 212.250 C 362.822 212.580,363.113 212.039,362.974 211.351 C 362.847 210.720,362.828 210.721,362.571 211.374 M50.091 243.328 C 48.981 243.813,48.484 244.565,49.273 244.565 C 49.471 244.565,49.267 244.985,48.820 245.498 C 47.944 246.504,47.244 248.005,47.816 247.651 C 48.004 247.535,47.936 247.867,47.665 248.390 C 47.394 248.912,47.214 249.718,47.265 250.181 C 47.335 250.818,47.215 250.973,46.776 250.816 C 46.457 250.702,46.310 250.736,46.450 250.891 C 46.590 251.046,46.466 251.412,46.175 251.703 C 45.884 251.994,45.749 252.400,45.876 252.606 C 46.003 252.811,45.940 253.084,45.736 253.211 C 45.127 253.590,45.035 255.245,45.622 255.250 C 45.904 255.252,46.205 255.463,46.291 255.720 C 46.399 256.045,46.166 256.135,45.522 256.019 C 44.591 255.850,43.930 256.745,44.148 257.880 C 44.196 258.130,44.047 258.333,43.818 258.333 C 43.580 258.333,43.499 258.589,43.629 258.928 C 43.754 259.255,43.610 259.900,43.308 260.361 C 42.814 261.114,42.817 261.231,43.339 261.524 C 43.868 261.819,43.866 261.869,43.318 262.080 C 42.964 262.215,42.807 262.163,42.937 261.952 C 43.059 261.755,42.997 261.594,42.799 261.594 C 42.287 261.594,41.596 263.693,41.636 265.127 C 41.648 265.575,41.497 265.942,41.300 265.942 C 41.103 265.942,40.942 266.340,40.942 266.826 C 40.942 267.313,40.776 267.813,40.574 267.938 C 40.371 268.064,40.301 268.320,40.418 268.509 C 40.534 268.698,40.754 268.775,40.907 268.681 C 41.059 268.587,41.184 268.745,41.184 269.032 C 41.184 269.407,41.057 269.449,40.733 269.180 C 40.416 268.917,40.195 268.945,39.988 269.276 C 39.531 270.007,39.516 270.652,39.956 270.652 C 40.176 270.652,40.039 270.892,39.653 271.184 C 39.266 271.477,39.136 271.721,39.363 271.728 C 39.591 271.734,39.864 271.963,39.969 272.238 C 40.087 272.546,39.929 272.719,39.555 272.690 C 39.197 272.664,38.968 272.892,38.995 273.250 C 39.023 273.625,38.850 273.783,38.542 273.664 C 38.085 273.489,37.865 273.963,38.020 274.786 C 38.054 274.967,37.889 275.234,37.654 275.379 C 37.100 275.721,37.594 276.540,38.159 276.216 C 38.405 276.075,38.459 276.111,38.285 276.301 C 38.119 276.482,37.793 276.630,37.560 276.630 C 37.328 276.630,37.138 276.875,37.138 277.174 C 37.138 277.473,36.932 277.934,36.681 278.199 C 36.431 278.465,36.318 278.832,36.431 279.015 C 36.544 279.198,36.455 279.348,36.232 279.348 C 36.009 279.348,35.928 279.511,36.051 279.710 C 36.174 279.909,36.083 280.072,35.849 280.072 C 35.601 280.072,35.502 280.376,35.612 280.797 C 35.716 281.196,35.659 281.522,35.485 281.522 C 35.310 281.522,35.262 281.766,35.376 282.065 C 35.494 282.373,35.385 282.609,35.123 282.609 C 34.869 282.609,34.764 282.711,34.889 282.836 C 35.014 282.961,34.846 283.572,34.516 284.194 C 34.186 284.817,33.867 285.530,33.806 285.779 C 33.745 286.028,33.635 286.436,33.561 286.685 C 33.486 286.934,33.303 287.668,33.153 288.315 C 33.003 288.963,32.758 289.493,32.607 289.493 C 32.197 289.493,31.419 291.569,31.674 291.982 C 31.796 292.180,31.752 292.430,31.576 292.539 C 31.400 292.647,31.340 293.172,31.442 293.705 C 31.560 294.322,31.490 294.588,31.250 294.440 C 31.043 294.312,30.780 294.451,30.665 294.748 C 30.532 295.095,30.682 295.300,31.080 295.318 C 31.580 295.341,31.596 295.387,31.159 295.548 C 30.031 295.966,29.678 296.445,30.112 296.968 C 30.431 297.353,30.392 297.464,29.936 297.464 C 29.411 297.464,29.126 298.375,29.324 299.423 C 29.358 299.604,29.204 299.865,28.981 300.003 C 28.758 300.141,28.541 300.482,28.498 300.761 C 28.456 301.040,28.268 301.513,28.080 301.812 C 27.678 302.451,27.483 303.196,27.488 304.076 C 27.490 304.425,27.329 304.710,27.130 304.710 C 26.931 304.710,26.885 304.898,27.027 305.127 C 27.169 305.357,26.984 305.765,26.617 306.033 C 26.122 306.395,26.084 306.525,26.471 306.533 C 26.914 306.543,26.911 306.611,26.449 306.987 C 25.837 307.486,25.631 308.077,25.581 309.477 C 25.562 310.006,25.423 310.364,25.273 310.271 C 25.123 310.178,25.000 310.438,25.000 310.848 C 25.000 311.258,24.810 311.594,24.577 311.594 C 24.345 311.594,24.256 311.695,24.379 311.818 C 24.502 311.942,24.366 312.280,24.077 312.569 C 23.788 312.858,23.556 313.287,23.562 313.522 C 23.569 313.757,23.830 313.623,24.143 313.225 C 24.696 312.521,24.705 312.526,24.445 313.406 C 24.298 313.904,24.007 314.421,23.799 314.554 C 23.446 314.781,23.200 315.501,23.107 316.576 C 23.085 316.825,22.937 317.029,22.777 317.029 C 22.617 317.029,22.572 317.253,22.677 317.526 C 22.782 317.799,22.603 318.124,22.280 318.248 C 21.957 318.372,21.788 318.626,21.903 318.813 C 22.019 319.000,21.948 319.255,21.745 319.380 C 21.103 319.777,21.311 320.755,21.982 320.497 C 22.342 320.359,22.194 320.659,21.614 321.238 C 20.565 322.287,20.584 322.891,21.640 322.063 C 22.224 321.604,22.238 321.615,21.785 322.192 C 21.512 322.541,21.036 322.826,20.729 322.826 C 20.421 322.826,20.278 322.935,20.411 323.068 C 20.545 323.202,20.384 323.609,20.053 323.974 C 19.723 324.339,19.565 324.638,19.703 324.638 C 19.841 324.638,19.768 324.983,19.542 325.406 C 19.209 326.028,19.224 326.120,19.620 325.887 C 19.889 325.729,19.801 325.951,19.425 326.379 C 18.809 327.082,18.800 327.181,19.333 327.385 C 19.658 327.510,19.822 327.776,19.699 327.975 C 19.561 328.198,19.355 328.149,19.163 327.847 C 18.937 327.490,18.850 327.584,18.846 328.192 C 18.842 328.759,18.986 328.944,19.293 328.768 C 19.557 328.616,19.620 328.645,19.444 328.837 C 19.278 329.018,18.993 329.187,18.810 329.212 C 18.628 329.237,18.306 329.278,18.095 329.303 C 17.884 329.327,17.823 329.529,17.960 329.751 C 18.097 329.972,17.985 330.292,17.712 330.460 C 17.335 330.694,17.317 330.868,17.638 331.189 C 17.960 331.511,17.897 331.787,17.376 332.346 C 17.000 332.750,16.793 333.244,16.916 333.443 C 17.039 333.642,16.901 333.985,16.609 334.204 C 15.858 334.767,15.541 335.790,16.053 336.000 C 16.367 336.128,16.343 336.276,15.968 336.538 C 15.683 336.736,15.407 337.115,15.355 337.380 C 14.996 339.203,14.805 339.673,14.311 339.950 C 14.004 340.121,13.852 340.422,13.973 340.618 C 14.094 340.814,13.975 341.242,13.709 341.569 C 13.291 342.083,13.309 342.133,13.840 341.934 C 14.280 341.770,14.398 341.853,14.255 342.227 C 14.145 342.514,13.909 342.659,13.730 342.549 C 13.411 342.352,13.263 342.859,13.379 343.750 C 13.411 343.999,13.258 344.203,13.038 344.203 C 12.818 344.203,12.739 344.366,12.862 344.565 C 12.985 344.764,12.894 344.928,12.658 344.928 C 12.342 344.928,12.350 345.072,12.688 345.480 C 12.940 345.783,13.042 346.137,12.914 346.265 C 12.786 346.393,12.681 346.307,12.681 346.075 C 12.681 345.842,12.491 345.652,12.258 345.652 C 12.026 345.652,11.939 345.755,12.065 345.881 C 12.190 346.007,12.132 346.411,11.935 346.779 C 11.453 347.680,11.891 349.269,12.630 349.301 C 13.094 349.321,13.065 349.395,12.500 349.638 C 11.867 349.909,11.908 349.952,12.816 349.975 C 13.712 349.996,13.792 350.078,13.393 350.559 C 13.016 351.013,13.017 351.199,13.402 351.555 C 13.779 351.904,13.814 351.883,13.578 351.449 C 13.377 351.082,13.528 351.122,14.042 351.573 C 14.975 352.389,16.379 352.101,16.056 351.159 C 15.894 350.687,15.980 350.712,16.425 351.268 C 16.955 351.929,17.007 351.936,17.017 351.346 C 17.027 350.797,17.147 350.762,17.809 351.116 C 18.451 351.460,18.553 351.441,18.387 351.008 C 18.271 350.708,18.396 350.483,18.678 350.483 C 18.949 350.483,19.087 350.619,18.984 350.785 C 18.716 351.220,19.845 351.157,20.720 350.688 C 21.261 350.399,21.397 350.399,21.218 350.688 C 20.842 351.297,21.414 351.163,22.226 350.453 C 22.624 350.104,22.831 350.024,22.684 350.274 C 22.342 350.860,23.406 351.291,24.008 350.811 C 24.255 350.614,24.823 350.513,25.272 350.587 C 25.720 350.660,26.087 350.548,26.087 350.339 C 26.087 350.129,25.935 350.051,25.750 350.166 C 25.564 350.280,25.293 350.168,25.148 349.915 C 25.003 349.663,25.017 349.577,25.180 349.725 C 25.343 349.873,25.727 349.791,26.033 349.544 C 26.387 349.257,26.498 349.244,26.340 349.509 C 26.203 349.737,26.335 350.018,26.633 350.132 C 26.930 350.246,27.174 350.164,27.174 349.950 C 27.174 349.736,27.418 349.654,27.717 349.769 C 28.016 349.883,28.261 349.802,28.261 349.588 C 28.261 349.373,28.494 349.287,28.778 349.396 C 29.062 349.505,29.477 349.375,29.700 349.106 C 30.007 348.737,30.412 348.703,31.369 348.967 C 32.708 349.337,34.058 349.105,34.058 348.505 C 34.058 348.307,34.255 348.267,34.496 348.416 C 35.386 348.966,36.620 348.891,36.514 348.293 C 36.459 347.978,36.658 347.650,36.957 347.564 C 37.388 347.441,37.400 347.479,37.017 347.748 C 36.624 348.024,36.641 348.129,37.107 348.308 C 37.423 348.429,37.681 348.353,37.681 348.138 C 37.681 347.924,37.907 347.835,38.183 347.941 C 38.459 348.047,39.030 347.892,39.452 347.597 C 39.874 347.301,40.371 347.153,40.556 347.268 C 40.742 347.383,41.554 347.249,42.361 346.971 C 43.168 346.693,43.740 346.609,43.632 346.784 C 43.299 347.323,43.926 347.135,44.690 346.467 C 45.088 346.119,45.295 346.038,45.148 346.289 C 44.806 346.874,45.870 347.305,46.472 346.825 C 46.719 346.629,47.287 346.528,47.736 346.601 C 48.184 346.675,48.551 346.563,48.551 346.353 C 48.551 346.143,48.399 346.066,48.213 346.180 C 48.028 346.295,47.771 346.219,47.643 346.011 C 47.515 345.804,47.574 345.679,47.774 345.734 C 47.974 345.789,48.402 345.507,48.726 345.109 C 49.308 344.394,49.310 344.394,48.940 345.163 C 48.571 345.928,49.228 346.666,49.783 346.110 C 50.172 345.722,50.011 345.240,49.582 345.506 C 49.335 345.658,49.261 345.606,49.402 345.378 C 49.657 344.965,50.287 344.968,50.955 345.387 C 51.182 345.528,51.566 345.405,51.809 345.112 C 52.146 344.706,52.420 344.672,52.975 344.968 C 53.800 345.410,56.159 345.083,56.159 344.527 C 56.159 344.325,56.356 344.282,56.597 344.431 C 57.250 344.834,58.696 344.924,58.696 344.561 C 58.696 344.387,59.037 344.310,59.454 344.390 C 60.006 344.497,60.156 344.391,60.005 343.999 C 59.841 343.572,59.938 343.536,60.479 343.826 C 60.997 344.103,61.211 344.054,61.377 343.623 C 61.710 342.754,61.626 342.512,61.199 343.116 C 60.857 343.599,60.833 343.599,60.978 343.116 C 61.068 342.817,61.325 342.613,61.549 342.663 C 61.773 342.713,61.957 342.554,61.957 342.311 C 61.957 342.067,62.210 342.230,62.521 342.673 C 63.154 343.577,63.957 343.769,63.639 342.940 C 63.467 342.492,63.550 342.475,64.135 342.840 C 64.685 343.184,64.933 343.183,65.281 342.835 C 65.814 342.302,66.439 342.242,66.123 342.754 C 65.766 343.331,66.365 343.174,67.118 342.492 C 67.662 341.999,67.783 341.980,67.690 342.401 C 67.617 342.732,67.847 342.935,68.297 342.935 C 68.697 342.935,69.022 342.693,69.022 342.396 C 69.022 342.100,69.326 341.799,69.699 341.727 C 70.125 341.645,70.283 341.746,70.127 342.000 C 69.990 342.222,69.685 342.293,69.450 342.158 C 69.214 342.023,69.148 342.052,69.303 342.222 C 69.728 342.690,70.948 342.791,71.202 342.380 C 71.326 342.181,71.604 342.127,71.820 342.260 C 72.055 342.405,72.109 342.335,71.955 342.085 C 71.799 341.832,71.937 341.667,72.306 341.667 C 72.827 341.667,72.846 341.575,72.435 341.033 C 72.027 340.493,72.031 340.466,72.463 340.851 C 72.742 341.101,73.274 341.304,73.645 341.304 C 74.078 341.304,74.227 341.143,74.062 340.851 C 73.858 340.489,73.904 340.489,74.295 340.851 C 75.095 341.594,76.667 341.460,76.041 340.703 C 75.586 340.152,75.613 340.144,76.359 340.609 C 77.019 341.020,77.311 341.031,77.899 340.664 C 78.297 340.415,78.623 340.340,78.623 340.498 C 78.623 340.656,79.153 340.780,79.801 340.773 C 80.529 340.766,80.945 340.592,80.891 340.318 C 80.826 339.988,81.044 339.967,81.748 340.234 C 82.536 340.534,82.656 340.501,82.477 340.035 C 82.303 339.582,82.394 339.546,82.957 339.848 C 83.428 340.100,83.725 340.101,83.880 339.850 C 84.005 339.647,84.260 339.575,84.445 339.689 C 84.631 339.804,84.783 339.624,84.783 339.289 C 84.783 338.829,84.899 338.776,85.254 339.071 C 85.751 339.483,87.187 339.271,87.953 338.671 C 88.241 338.446,88.406 338.445,88.406 338.667 C 88.406 338.859,89.099 339.001,89.946 338.983 C 90.901 338.962,91.455 338.790,91.406 338.530 C 91.320 338.076,91.938 338.075,92.663 338.528 C 92.912 338.684,93.116 338.648,93.116 338.448 C 93.116 338.248,93.446 338.149,93.850 338.227 C 94.323 338.318,94.495 338.224,94.334 337.963 C 94.175 337.705,94.288 337.636,94.645 337.773 C 94.954 337.892,95.551 337.747,95.973 337.452 C 96.394 337.157,96.739 337.026,96.739 337.162 C 96.739 337.297,97.015 337.184,97.352 336.910 C 97.769 336.572,97.878 336.558,97.693 336.866 C 97.519 337.156,97.638 337.319,98.025 337.319 C 98.410 337.319,98.553 337.124,98.422 336.781 C 98.249 336.331,98.332 336.315,98.926 336.687 C 99.489 337.038,99.789 337.036,100.362 336.678 C 100.761 336.429,101.087 336.355,101.087 336.513 C 101.087 336.963,102.992 336.825,103.895 336.310 C 104.443 335.997,104.710 335.974,104.710 336.241 C 104.710 336.470,104.901 336.515,105.163 336.349 C 105.614 336.063,105.811 336.001,106.543 335.915 C 106.754 335.890,106.852 335.747,106.760 335.598 C 106.668 335.448,107.252 335.296,108.056 335.259 C 108.861 335.222,109.692 335.018,109.904 334.806 C 110.392 334.318,110.987 334.300,110.688 334.783 C 110.332 335.360,110.928 335.203,111.719 334.511 C 112.117 334.162,112.324 334.082,112.177 334.332 C 111.724 335.107,113.086 335.348,113.639 334.591 C 113.909 334.222,114.130 334.079,114.130 334.273 C 114.130 334.468,114.457 334.627,114.855 334.627 C 115.254 334.627,115.580 334.488,115.580 334.318 C 115.580 334.148,115.926 334.119,116.350 334.254 C 116.890 334.425,117.041 334.371,116.857 334.073 C 116.700 333.819,116.792 333.680,117.083 333.729 C 117.607 333.816,118.604 333.506,119.694 332.918 C 120.163 332.665,120.293 332.673,120.125 332.944 C 119.991 333.162,120.151 333.333,120.488 333.333 C 120.843 333.333,121.015 333.134,120.907 332.850 C 120.805 332.585,120.943 332.367,121.214 332.367 C 121.485 332.367,121.623 332.503,121.521 332.669 C 121.230 333.140,122.629 333.024,123.116 332.536 C 123.355 332.297,123.551 332.262,123.551 332.458 C 123.551 332.654,124.081 332.809,124.728 332.802 C 125.380 332.795,125.874 332.612,125.834 332.392 C 125.782 332.106,126.160 332.101,127.181 332.373 C 128.638 332.762,129.550 332.457,128.630 331.888 C 128.346 331.713,128.002 331.639,127.865 331.724 C 127.728 331.808,127.672 331.295,127.741 330.583 C 127.877 329.184,125.722 326.449,124.485 326.449 C 124.170 326.449,123.913 326.286,123.913 326.087 C 123.913 325.888,123.791 325.764,123.641 325.811 C 123.064 325.995,113.601 319.881,107.609 315.454 C 96.803 307.470,83.212 294.079,76.277 284.585 C 75.702 283.797,74.334 281.954,73.237 280.489 C 71.125 277.666,70.483 276.686,66.534 270.245 C 63.300 264.972,58.662 256.164,56.828 251.812 C 54.723 246.817,52.900 243.116,52.543 243.116 C 52.373 243.116,52.016 243.048,51.751 242.965 C 51.485 242.881,50.738 243.045,50.091 243.328 M325.158 293.931 L 324.094 295.109 325.272 294.045 C 325.919 293.459,326.449 292.929,326.449 292.867 C 326.449 292.587,326.150 292.834,325.158 293.931 M313.202 305.525 L 312.138 306.703 313.315 305.639 C 313.963 305.053,314.493 304.524,314.493 304.461 C 314.493 304.181,314.194 304.428,313.202 305.525 M84.420 338.790 C 84.420 339.190,83.382 339.502,83.174 339.165 C 83.073 339.002,83.068 338.792,83.162 338.698 C 83.433 338.427,84.420 338.499,84.420 338.790 M186.413 348.913 C 185.766 349.191,185.793 349.227,186.663 349.250 C 187.200 349.264,187.739 349.112,187.862 348.913 C 188.130 348.480,187.420 348.480,186.413 348.913 M217.755 349.059 C 217.949 349.253,218.713 349.241,219.638 349.028 L 221.196 348.671 219.312 348.701 C 218.194 348.720,217.561 348.865,217.755 349.059 " stroke="none" fill="#84c4fc" fill-rule="evenodd"></path><path id="path1" d="M117.935 162.927 C 101.448 166.617,93.192 183.199,100.402 198.142 C 102.326 202.129,106.851 206.843,110.475 208.634 L 112.797 209.783 122.111 209.783 L 131.424 209.783 133.931 208.528 C 137.492 206.747,141.753 202.320,143.883 198.188 L 145.471 195.109 145.471 187.138 L 145.471 179.167 144.061 176.268 C 139.589 167.073,127.345 160.821,117.935 162.927 M262.883 163.486 C 261.892 164.901,262.044 208.059,263.043 209.058 C 263.753 209.767,264.251 209.783,286.211 209.783 L 308.655 209.783 309.219 208.977 C 309.714 208.270,309.783 205.503,309.783 186.232 C 309.783 166.961,309.714 164.194,309.219 163.486 L 308.655 162.681 286.051 162.681 L 263.447 162.681 262.883 163.486 M201.650 165.321 C 201.158 165.762,199.549 168.243,198.074 170.833 C 196.600 173.424,193.556 178.723,191.311 182.609 C 189.065 186.495,185.961 191.875,184.414 194.565 C 182.866 197.255,180.523 201.323,179.206 203.605 C 175.110 210.702,173.133 210.154,202.681 210.109 C 226.709 210.072,227.732 210.028,228.383 208.995 C 228.826 208.293,229.323 209.198,212.681 180.435 C 210.433 176.549,207.946 172.228,207.156 170.833 C 203.559 164.488,203.097 164.026,201.650 165.321 M49.004 242.210 C 49.008 243.007,49.083 243.291,49.169 242.840 C 49.256 242.389,49.253 241.737,49.162 241.391 C 49.071 241.044,49.000 241.413,49.004 242.210 M123.188 333.021 C 123.188 333.193,123.596 333.333,124.094 333.333 C 124.592 333.333,125.000 333.271,125.000 333.194 C 125.000 333.118,124.592 332.978,124.094 332.882 C 123.596 332.787,123.188 332.850,123.188 333.021 M109.926 335.205 C 109.824 335.371,110.320 335.507,111.029 335.507 C 111.739 335.507,112.319 335.444,112.319 335.367 C 112.319 335.070,110.103 334.920,109.926 335.205 M100.725 337.007 C 100.725 337.178,101.132 337.319,101.630 337.319 C 102.129 337.319,102.536 337.256,102.536 337.180 C 102.536 337.104,102.129 336.963,101.630 336.868 C 101.132 336.773,100.725 336.835,100.725 337.007 M87.825 339.191 C 87.722 339.357,88.219 339.493,88.928 339.493 C 89.637 339.493,90.217 339.430,90.217 339.353 C 90.217 339.055,88.001 338.905,87.825 339.191 M78.261 340.992 C 78.261 341.164,78.668 341.304,79.167 341.304 C 79.665 341.304,80.072 341.242,80.072 341.165 C 80.072 341.089,79.665 340.949,79.167 340.853 C 78.668 340.758,78.261 340.821,78.261 340.992 M65.361 343.176 C 65.259 343.342,65.755 343.478,66.464 343.478 C 67.173 343.478,67.754 343.415,67.754 343.338 C 67.754 343.041,65.538 342.891,65.361 343.176 M11.373 346.532 C 11.264 346.816,11.235 347.427,11.310 347.890 C 11.409 348.509,11.493 348.373,11.628 347.373 C 11.817 345.967,11.717 345.635,11.373 346.532 M42.897 347.162 C 42.795 347.328,43.291 347.464,44.000 347.464 C 44.710 347.464,45.290 347.401,45.290 347.324 C 45.290 347.026,43.074 346.876,42.897 347.162 M198.641 349.546 C 200.784 349.610,204.289 349.610,206.431 349.546 C 208.573 349.482,206.821 349.429,202.536 349.429 C 198.252 349.429,196.499 349.482,198.641 349.546 M20.434 351.147 C 20.331 351.313,20.827 351.449,21.537 351.449 C 22.246 351.449,22.826 351.386,22.826 351.309 C 22.826 351.012,20.610 350.862,20.434 351.147 " stroke="none" fill="#fafbfc" fill-rule="evenodd"></path><path id="path2" d="M382.948 11.205 C 380.959 11.595,379.815 12.497,380.676 12.997 C 381.042 13.210,381.146 13.389,380.909 13.395 C 380.672 13.401,380.377 13.243,380.254 13.043 C 379.995 12.625,378.262 12.546,378.259 12.953 C 378.257 13.102,377.386 13.237,376.321 13.252 C 375.052 13.269,373.961 13.534,373.153 14.021 C 372.475 14.429,370.971 14.868,369.811 14.996 C 368.651 15.125,366.741 15.635,365.565 16.129 C 364.389 16.624,362.958 17.029,362.384 17.029 C 361.119 17.029,358.999 17.727,359.213 18.074 C 359.298 18.211,359.094 18.353,358.760 18.389 C 354.136 18.889,350.888 19.674,351.220 20.212 C 351.317 20.368,351.123 20.520,350.789 20.547 C 348.208 20.761,345.124 21.416,343.670 22.059 C 342.717 22.481,341.377 22.826,340.693 22.826 C 340.010 22.826,339.541 22.974,339.653 23.155 C 339.765 23.335,339.507 23.392,339.080 23.280 C 338.409 23.105,335.154 24.437,334.872 25.003 C 334.822 25.104,334.027 25.126,333.105 25.053 C 332.031 24.968,331.511 25.052,331.657 25.288 C 331.794 25.509,331.604 25.583,331.182 25.473 C 330.795 25.372,329.776 25.623,328.917 26.030 C 328.058 26.437,326.415 26.873,325.267 26.999 C 323.907 27.147,323.263 27.364,323.421 27.619 C 323.571 27.862,323.492 27.905,323.213 27.733 C 322.776 27.462,319.930 28.516,319.925 28.950 C 319.924 29.069,318.976 29.176,317.817 29.187 C 316.308 29.201,315.347 29.432,314.425 30.002 C 313.718 30.439,312.792 30.797,312.367 30.797 C 311.942 30.797,311.594 30.927,311.594 31.087 C 311.594 31.246,311.039 31.311,310.360 31.232 C 309.573 31.140,308.360 31.419,307.009 32.001 C 305.844 32.503,303.945 32.997,302.788 33.099 C 301.632 33.202,300.140 33.607,299.473 34.000 C 298.806 34.394,297.063 34.901,295.598 35.129 C 294.134 35.356,292.568 35.783,292.117 36.078 C 291.667 36.373,290.157 36.758,288.761 36.933 C 287.361 37.109,285.648 37.592,284.939 38.010 C 284.232 38.427,283.337 38.768,282.950 38.768 C 282.563 38.768,282.246 38.890,282.245 39.040 C 282.245 39.189,281.470 39.315,280.524 39.320 C 278.725 39.328,275.370 40.499,275.358 41.123 C 275.354 41.361,275.260 41.360,275.085 41.119 C 274.939 40.918,273.922 40.373,272.826 39.908 C 271.730 39.443,270.426 38.838,269.928 38.564 C 267.915 37.457,264.567 36.216,263.342 36.123 C 263.008 36.097,262.811 35.953,262.904 35.803 C 262.997 35.652,262.618 35.430,262.062 35.309 C 261.506 35.189,260.090 34.613,258.916 34.031 C 257.743 33.448,256.387 32.971,255.905 32.971 C 255.422 32.971,254.131 32.547,253.035 32.028 C 251.709 31.401,250.627 31.134,249.802 31.230 C 249.120 31.310,248.519 31.286,248.466 31.177 C 248.166 30.559,244.447 29.257,242.241 28.997 C 240.829 28.831,238.891 28.342,237.935 27.910 C 236.650 27.329,235.087 27.053,231.956 26.852 C 228.870 26.654,227.373 26.392,226.449 25.889 C 223.529 24.298,181.852 24.408,177.976 26.017 C 176.624 26.578,175.311 26.812,173.516 26.812 C 172.117 26.812,171.054 26.945,171.155 27.108 C 171.256 27.272,170.864 27.336,170.285 27.250 C 169.666 27.160,168.579 27.411,167.653 27.859 C 166.785 28.280,165.882 28.623,165.646 28.623 C 165.410 28.623,165.217 28.745,165.217 28.895 C 165.217 29.044,164.116 29.168,162.771 29.169 C 160.902 29.171,160.027 29.356,159.058 29.954 C 158.361 30.384,157.138 30.841,156.341 30.969 C 153.592 31.410,153.226 31.535,153.483 31.951 C 153.628 32.185,153.573 32.258,153.355 32.123 C 153.145 31.994,152.509 32.131,151.940 32.427 C 151.371 32.724,150.399 32.968,149.779 32.969 C 149.160 32.970,147.736 33.460,146.616 34.058 C 145.496 34.656,144.203 35.145,143.743 35.145 C 143.283 35.145,142.261 35.484,141.472 35.899 C 140.682 36.314,139.384 36.859,138.587 37.109 C 137.790 37.359,137.182 37.766,137.237 38.012 C 137.292 38.258,137.184 38.365,136.998 38.250 C 136.811 38.135,136.196 38.263,135.630 38.535 C 131.385 40.577,130.504 40.982,129.648 41.285 C 129.011 41.510,128.715 41.850,128.781 42.281 C 128.836 42.641,128.811 42.731,128.726 42.482 C 128.518 41.877,128.086 41.910,127.536 42.572 C 127.288 42.871,126.802 43.116,126.455 43.116 C 126.109 43.116,125.222 43.526,124.484 44.027 C 123.746 44.527,122.572 45.175,121.876 45.466 C 120.454 46.060,118.777 47.280,119.032 47.535 C 119.124 47.627,118.834 47.689,118.386 47.674 C 117.735 47.651,117.586 47.826,117.640 48.551 C 117.678 49.074,117.629 49.189,117.522 48.822 C 117.298 48.049,117.223 48.045,116.149 48.748 C 115.679 49.057,115.335 49.586,115.385 49.926 C 115.435 50.266,115.406 50.340,115.320 50.091 C 115.104 49.462,114.930 49.510,113.702 50.543 C 113.110 51.042,112.408 51.449,112.143 51.449 C 111.878 51.449,110.710 52.224,109.549 53.170 C 108.388 54.117,106.393 55.578,105.115 56.417 C 102.692 58.010,94.462 65.235,94.746 65.519 C 94.836 65.609,95.199 65.456,95.553 65.178 C 96.139 64.718,96.151 64.730,95.692 65.316 C 95.414 65.669,94.921 65.874,94.595 65.770 C 93.864 65.538,91.201 67.656,91.538 68.201 C 91.685 68.438,91.607 68.484,91.341 68.320 C 91.076 68.156,90.558 68.450,90.031 69.063 C 88.995 70.269,89.175 70.768,90.235 69.629 C 90.640 69.196,91.076 68.841,91.205 68.841 C 91.334 68.841,90.971 69.330,90.398 69.928 C 89.635 70.724,89.277 70.895,89.064 70.562 C 88.797 70.147,81.522 77.268,81.522 77.945 C 81.522 78.075,80.877 78.962,80.090 79.915 C 78.770 81.512,78.444 82.603,79.463 82.009 C 79.699 81.872,79.567 82.129,79.171 82.580 C 78.774 83.031,78.122 83.563,77.721 83.761 C 77.321 83.960,77.468 83.727,78.049 83.243 C 78.825 82.598,78.983 82.287,78.643 82.078 C 78.346 81.894,77.870 82.164,77.311 82.834 C 74.721 85.941,74.318 86.516,74.557 86.755 C 74.701 86.899,74.574 86.963,74.275 86.896 C 73.945 86.823,73.751 87.019,73.780 87.395 C 73.806 87.736,73.643 87.981,73.418 87.939 C 73.192 87.897,73.030 88.146,73.057 88.492 C 73.084 88.839,72.960 89.032,72.782 88.922 C 72.603 88.812,72.173 89.246,71.826 89.888 C 71.479 90.530,70.951 91.317,70.652 91.637 C 68.995 93.409,68.463 94.332,68.920 94.643 C 69.245 94.863,69.166 94.926,68.659 94.852 C 68.158 94.779,67.950 94.941,67.984 95.377 C 68.012 95.723,67.901 95.925,67.739 95.824 C 67.576 95.724,67.327 96.011,67.185 96.462 C 67.042 96.913,66.374 97.928,65.700 98.718 C 65.025 99.507,64.558 100.371,64.660 100.639 C 64.763 100.906,64.704 101.036,64.530 100.929 C 64.128 100.681,63.572 101.367,63.227 102.536 C 63.080 103.034,62.658 103.773,62.289 104.177 C 61.488 105.056,60.462 107.805,60.807 108.150 C 60.941 108.284,60.818 108.339,60.533 108.273 C 60.230 108.203,59.690 108.756,59.236 109.601 C 56.541 114.624,55.072 117.588,55.072 118.007 C 55.072 118.272,54.583 119.356,53.986 120.415 C 53.388 121.475,52.899 122.675,52.899 123.083 C 52.899 123.491,52.655 124.027,52.356 124.274 C 52.058 124.522,51.569 125.548,51.270 126.554 C 50.972 127.561,50.507 128.724,50.237 129.138 C 49.269 130.627,48.249 135.012,48.974 134.563 C 49.230 134.405,49.288 134.470,49.125 134.733 C 48.981 134.966,48.719 135.068,48.544 134.960 C 48.061 134.661,47.570 135.820,47.115 138.334 C 46.889 139.579,46.355 141.189,45.930 141.910 C 45.436 142.748,45.124 143.958,45.070 145.253 C 45.023 146.369,44.807 147.745,44.591 148.309 C 44.375 148.874,44.306 149.511,44.437 149.724 C 44.576 149.948,44.507 150.007,44.276 149.864 C 43.748 149.538,43.007 152.280,43.192 153.871 C 43.270 154.532,43.202 155.072,43.043 155.072 C 42.884 155.072,42.754 155.755,42.754 156.589 C 42.754 157.428,42.390 158.842,41.939 159.759 C 41.269 161.119,41.103 162.154,41.003 165.580 C 40.815 171.994,40.356 177.586,39.903 178.983 C 39.354 180.675,39.354 193.962,39.903 195.655 C 40.356 197.052,40.815 202.644,41.003 209.058 C 41.103 212.483,41.269 213.519,41.939 214.879 C 42.390 215.795,42.754 217.209,42.754 218.049 C 42.754 218.883,42.884 219.565,43.043 219.565 C 43.202 219.565,43.270 220.106,43.192 220.767 C 43.035 222.117,43.730 225.111,44.142 224.856 C 44.289 224.765,44.434 224.964,44.463 225.298 C 44.787 228.979,45.386 231.718,46.212 233.299 C 46.743 234.314,47.224 235.884,47.281 236.788 C 47.346 237.816,47.739 238.967,48.330 239.860 C 49.392 241.465,49.555 243.157,48.715 243.854 C 48.407 244.110,48.243 244.546,48.349 244.823 C 48.455 245.101,48.398 245.238,48.222 245.130 C 48.046 245.021,47.803 245.189,47.683 245.503 C 47.387 246.273,47.386 246.269,48.026 246.515 C 48.335 246.634,48.504 246.594,48.401 246.428 C 48.298 246.261,48.540 245.773,48.940 245.345 C 49.339 244.916,49.497 244.565,49.289 244.565 C 48.462 244.565,48.986 243.820,50.158 243.330 C 52.592 242.313,53.094 242.951,56.828 251.812 C 58.662 256.164,63.300 264.972,66.534 270.245 C 70.483 276.686,71.125 277.666,73.237 280.489 C 74.334 281.954,75.702 283.797,76.277 284.585 C 83.212 294.079,96.803 307.470,107.609 315.454 C 113.601 319.881,123.064 325.995,123.641 325.811 C 123.791 325.764,123.913 325.888,123.913 326.087 C 123.913 326.286,124.170 326.449,124.485 326.449 C 125.716 326.449,127.877 329.184,127.742 330.572 C 127.674 331.279,127.722 331.844,127.849 331.828 C 128.497 331.745,128.927 331.933,129.095 332.371 C 129.229 332.719,129.008 332.823,128.318 332.736 C 127.789 332.669,128.142 332.844,129.105 333.125 C 130.067 333.405,131.152 333.905,131.516 334.234 C 131.880 334.563,132.894 335.048,133.769 335.312 C 134.644 335.575,135.923 336.134,136.611 336.553 C 137.299 336.973,138.151 337.317,138.504 337.317 C 138.857 337.318,139.757 337.723,140.503 338.217 C 141.249 338.711,142.428 339.227,143.122 339.365 C 143.816 339.503,145.199 339.994,146.196 340.456 C 147.192 340.919,148.335 341.299,148.735 341.301 C 149.135 341.303,150.267 341.733,151.250 342.256 C 152.436 342.887,153.655 343.223,154.870 343.252 C 155.878 343.277,156.804 343.435,156.927 343.604 C 157.051 343.773,157.565 343.936,158.070 343.967 C 158.575 343.997,158.913 344.144,158.820 344.294 C 158.570 344.699,160.562 345.364,161.492 345.186 C 161.935 345.101,162.211 345.172,162.105 345.342 C 162.000 345.513,162.582 345.652,163.399 345.652 C 164.230 345.652,165.555 346.005,166.409 346.454 C 167.558 347.057,168.633 347.271,170.761 347.318 C 172.316 347.352,173.688 347.480,173.811 347.603 C 173.933 347.726,174.541 347.826,175.161 347.826 C 175.781 347.826,176.635 348.069,177.059 348.366 C 179.452 350.042,228.328 350.006,228.021 348.328 C 227.989 348.152,228.537 347.977,229.240 347.940 C 229.943 347.902,230.784 347.766,231.110 347.637 C 231.436 347.507,233.007 347.364,234.601 347.318 C 236.677 347.258,237.911 347.024,238.949 346.495 C 239.746 346.088,241.444 345.650,242.722 345.522 C 244.001 345.393,245.936 344.881,247.024 344.383 C 248.111 343.886,249.475 343.478,250.055 343.478 C 251.333 343.478,253.746 342.521,253.495 342.114 C 253.395 341.953,253.587 341.807,253.922 341.788 C 255.497 341.699,258.540 340.875,259.558 340.262 C 260.180 339.887,261.341 339.466,262.138 339.325 C 262.935 339.185,264.108 338.749,264.745 338.358 C 265.381 337.967,266.604 337.436,267.462 337.179 C 268.320 336.922,268.993 336.557,268.957 336.368 C 268.921 336.179,269.166 336.006,269.501 335.983 C 271.226 335.863,273.007 334.836,272.940 333.998 C 272.898 333.464,272.941 333.386,273.057 333.786 C 273.279 334.549,273.679 334.595,274.239 333.920 C 274.467 333.646,275.150 333.321,275.757 333.200 C 276.472 333.057,276.768 332.831,276.598 332.557 C 276.435 332.292,276.495 332.232,276.759 332.395 C 276.991 332.538,277.609 332.319,278.132 331.908 C 278.655 331.496,279.347 331.156,279.668 331.153 C 279.990 331.149,280.971 330.660,281.848 330.066 C 282.725 329.472,283.613 328.986,283.821 328.986 C 284.688 328.986,286.992 327.058,286.519 326.728 C 286.203 326.508,286.296 326.470,286.805 326.612 C 287.295 326.748,287.784 326.573,288.201 326.113 C 288.554 325.723,289.319 325.299,289.901 325.171 C 291.421 324.837,293.313 323.186,292.688 322.738 C 292.342 322.490,292.395 322.455,292.880 322.613 C 293.305 322.751,293.944 322.499,294.629 321.923 C 295.222 321.423,295.925 321.014,296.191 321.014 C 296.793 321.014,302.024 316.666,301.907 316.263 C 301.859 316.101,302.022 316.040,302.269 316.129 C 303.049 316.408,306.168 313.863,305.934 313.138 C 305.782 312.664,305.818 312.624,306.073 312.981 C 306.491 313.564,309.370 310.996,317.948 302.389 C 327.089 293.217,328.808 291.288,328.220 290.869 C 327.827 290.589,327.853 290.555,328.344 290.712 C 328.945 290.905,330.796 289.002,330.798 288.190 C 330.798 288.010,331.202 287.393,331.696 286.819 C 332.189 286.245,332.503 285.629,332.393 285.451 C 332.283 285.273,332.390 285.172,332.632 285.227 C 333.183 285.351,335.587 282.306,335.301 281.844 C 335.186 281.657,335.306 281.549,335.568 281.603 C 335.830 281.658,336.385 280.996,336.802 280.131 C 337.219 279.267,337.710 278.452,337.894 278.320 C 339.091 277.461,342.164 272.017,341.727 271.530 C 341.594 271.382,341.693 271.380,341.946 271.526 C 342.251 271.702,342.590 271.384,342.948 270.588 C 343.246 269.926,344.158 268.324,344.976 267.029 C 345.793 265.734,346.629 264.185,346.833 263.587 C 347.037 262.989,347.442 262.225,347.732 261.889 C 348.022 261.553,348.137 261.079,347.987 260.836 C 347.825 260.575,347.865 260.489,348.086 260.625 C 348.294 260.754,348.726 260.154,349.067 259.260 C 349.402 258.383,349.912 257.470,350.200 257.231 C 350.489 256.991,350.725 256.528,350.725 256.200 C 350.725 255.873,351.196 254.629,351.772 253.437 C 352.348 252.244,352.937 250.697,353.080 250.000 C 353.224 249.303,353.584 248.457,353.880 248.121 C 354.176 247.784,354.296 247.311,354.146 247.068 C 353.981 246.802,354.025 246.721,354.256 246.863 C 354.620 247.088,355.668 243.868,355.563 242.848 C 355.537 242.601,355.662 242.489,355.839 242.598 C 356.264 242.861,356.974 240.961,356.758 240.137 C 356.665 239.782,356.737 239.583,356.918 239.695 C 357.099 239.806,357.246 239.469,357.246 238.945 C 357.246 238.421,357.487 237.751,357.780 237.458 C 358.468 236.770,359.166 234.181,358.958 233.091 C 358.869 232.626,358.937 232.246,359.108 232.246 C 359.280 232.246,359.420 231.767,359.420 231.181 C 359.420 230.595,359.594 230.008,359.807 229.876 C 360.020 229.744,360.104 229.400,359.993 229.111 C 359.882 228.822,359.947 228.682,360.138 228.800 C 360.666 229.126,361.046 227.289,361.048 224.402 C 361.050 222.977,361.166 221.881,361.307 221.968 C 361.931 222.350,362.745 220.110,363.056 217.155 C 363.456 213.354,363.529 159.421,363.134 159.419 C 362.985 159.419,362.860 158.400,362.858 157.155 C 362.854 154.931,362.090 152.654,361.389 152.776 C 361.202 152.808,361.050 151.508,361.050 149.878 C 361.049 147.515,360.885 146.609,360.235 145.369 C 359.787 144.516,359.420 143.497,359.420 143.105 C 359.420 142.712,359.285 142.391,359.121 142.391 C 358.956 142.391,358.889 141.926,358.973 141.358 C 359.058 140.778,358.773 139.509,358.323 138.462 C 357.547 136.658,357.542 136.569,358.166 135.616 C 358.538 135.048,358.824 133.900,358.844 132.898 C 358.862 131.944,358.999 131.163,359.149 131.162 C 359.298 131.160,359.420 130.782,359.420 130.322 C 359.420 129.861,359.753 128.795,360.160 127.953 C 361.026 126.160,361.568 121.739,360.922 121.739 C 360.694 121.739,360.507 121.556,360.507 121.332 C 360.507 121.034,360.639 121.035,361.003 121.337 C 361.899 122.081,363.405 118.450,362.939 116.668 C 362.834 116.269,362.897 115.942,363.077 115.942 C 363.258 115.942,363.406 115.544,363.406 115.057 C 363.406 114.570,363.747 113.593,364.165 112.886 C 364.627 112.102,364.991 110.715,365.097 109.333 C 365.203 107.949,365.629 106.326,366.190 105.169 C 366.814 103.882,367.062 102.863,366.961 101.998 C 366.879 101.298,366.942 100.725,367.102 100.725 C 367.261 100.725,367.391 100.377,367.391 99.952 C 367.391 99.527,367.733 98.626,368.151 97.950 C 368.611 97.206,368.988 95.830,369.107 94.466 C 369.214 93.225,369.607 91.603,369.980 90.861 C 370.352 90.120,370.832 88.245,371.046 86.695 C 371.261 85.145,371.652 83.632,371.916 83.333 C 372.577 82.586,373.258 79.876,373.138 78.477 C 373.080 77.811,373.382 76.662,373.850 75.763 C 374.303 74.894,374.838 72.898,375.059 71.251 C 375.306 69.415,375.712 67.970,376.134 67.433 C 376.885 66.476,377.075 65.012,376.393 65.433 C 376.132 65.595,376.073 65.532,376.237 65.267 C 376.381 65.034,376.651 64.937,376.837 65.052 C 377.024 65.167,377.174 64.601,377.174 63.779 C 377.174 62.964,377.572 61.350,378.059 60.193 C 378.546 59.036,379.052 57.207,379.184 56.128 C 379.315 55.049,379.733 53.502,380.112 52.689 C 380.491 51.877,380.950 50.030,381.131 48.585 C 381.313 47.140,381.701 45.685,381.994 45.352 C 382.951 44.265,383.802 38.366,383.062 37.952 C 382.912 37.868,382.993 37.849,383.242 37.910 C 384.049 38.107,384.801 36.380,385.111 33.617 C 385.278 32.130,385.698 30.481,386.044 29.952 C 386.390 29.424,386.576 28.737,386.457 28.426 C 386.317 28.062,386.386 27.951,386.651 28.115 C 386.932 28.288,387.004 28.068,386.880 27.420 C 386.780 26.898,386.838 26.557,387.009 26.663 C 387.179 26.768,387.319 26.198,387.319 25.395 C 387.319 24.582,387.680 23.248,388.134 22.384 C 390.424 18.028,388.839 10.933,385.659 11.304 C 385.006 11.380,384.551 11.314,384.648 11.156 C 384.843 10.841,384.807 10.842,382.948 11.205 M387.825 13.352 C 387.772 13.422,387.392 13.245,386.982 12.957 C 386.572 12.670,386.331 12.341,386.446 12.226 C 386.657 12.015,388.006 13.116,387.825 13.352 M185.809 25.680 C 186.130 25.883,185.929 25.973,185.211 25.946 C 184.616 25.924,184.204 25.784,184.296 25.634 C 184.516 25.277,185.206 25.298,185.809 25.680 M195.199 25.622 C 194.651 25.705,193.755 25.705,193.207 25.622 C 192.659 25.539,193.107 25.471,194.203 25.471 C 195.299 25.471,195.747 25.539,195.199 25.622 M212.228 25.622 C 211.680 25.705,210.784 25.705,210.236 25.622 C 209.687 25.539,210.136 25.471,211.232 25.471 C 212.328 25.471,212.776 25.539,212.228 25.622 M220.938 25.670 C 221.240 25.861,221.022 25.966,220.320 25.966 C 219.723 25.966,219.319 25.830,219.421 25.664 C 219.657 25.283,220.332 25.285,220.938 25.670 M174.419 27.476 C 174.522 27.642,174.117 27.778,173.521 27.778 C 172.819 27.778,172.600 27.673,172.902 27.481 C 173.508 27.097,174.184 27.095,174.419 27.476 M98.913 62.867 C 98.913 62.902,98.599 63.215,98.216 63.562 C 97.642 64.081,97.262 63.416,97.798 62.832 C 97.854 62.771,98.913 62.804,98.913 62.867 M131.393 162.271 C 137.431 164.640,142.833 169.464,145.730 175.073 L 147.283 178.080 147.283 187.138 L 147.283 196.196 145.675 199.275 C 143.625 203.201,138.325 208.675,134.964 210.338 L 132.790 211.413 122.101 211.413 L 111.413 211.413 109.239 210.331 C 105.801 208.619,100.589 203.176,98.653 199.275 C 91.679 185.223,97.953 168.219,112.218 162.508 C 117.510 160.389,126.320 160.280,131.393 162.271 M309.837 161.261 C 311.563 162.184,311.594 162.634,311.594 186.232 C 311.594 210.329,311.582 210.479,309.595 211.234 C 309.005 211.459,300.143 211.594,286.051 211.594 C 271.959 211.594,263.097 211.459,262.506 211.234 C 260.519 210.479,260.507 210.329,260.507 186.232 C 260.507 162.788,260.544 162.239,262.194 161.280 C 263.133 160.734,308.819 160.716,309.837 161.261 M204.607 162.772 C 205.018 163.220,206.331 165.299,207.524 167.391 C 209.721 171.244,216.611 183.183,224.460 196.739 C 226.825 200.824,229.216 204.982,229.772 205.978 C 231.366 208.832,231.070 210.813,228.939 211.556 C 226.762 212.315,177.276 212.097,175.725 211.322 C 173.730 210.326,173.818 208.922,176.125 204.891 C 177.151 203.098,179.008 199.837,180.251 197.645 C 181.494 195.453,183.482 192.029,184.670 190.036 C 187.214 185.767,192.960 175.770,196.604 169.276 C 200.570 162.207,202.586 160.569,204.607 162.772 M363.038 163.134 C 363.033 163.793,362.965 163.845,362.681 163.406 C 362.227 162.703,362.227 162.319,362.681 162.319 C 362.880 162.319,363.041 162.686,363.038 163.134 M41.908 165.608 C 41.908 166.394,41.819 166.564,41.606 166.183 C 41.439 165.885,41.402 165.383,41.524 165.067 C 41.838 164.247,41.908 164.345,41.908 165.608 M41.554 172.373 C 41.463 172.722,41.388 172.437,41.388 171.739 C 41.388 171.042,41.463 170.756,41.554 171.105 C 41.645 171.454,41.645 172.024,41.554 172.373 M40.480 188.128 C 40.399 188.779,40.332 188.333,40.330 187.138 C 40.328 185.942,40.394 185.409,40.476 185.954 C 40.559 186.498,40.561 187.476,40.480 188.128 M41.908 209.086 C 41.908 209.873,41.819 210.042,41.606 209.661 C 41.439 209.363,41.402 208.862,41.524 208.546 C 41.838 207.726,41.908 207.824,41.908 209.086 M362.894 212.226 C 362.505 212.616,362.298 212.070,362.571 211.374 C 362.828 210.721,362.847 210.720,362.974 211.351 C 363.048 211.715,363.012 212.109,362.894 212.226 M47.101 247.261 C 47.101 247.846,47.615 248.279,47.932 247.962 C 48.214 247.679,47.825 246.739,47.425 246.739 C 47.247 246.739,47.101 246.974,47.101 247.261 M46.905 248.937 C 46.774 249.150,46.747 249.404,46.846 249.503 C 46.944 249.601,46.634 250.072,46.157 250.549 C 45.242 251.464,45.031 252.174,45.674 252.174 C 45.885 252.174,45.956 252.011,45.833 251.812 C 45.710 251.612,45.904 251.447,46.265 251.444 C 46.828 251.439,46.844 251.383,46.377 251.050 C 45.928 250.730,45.960 250.689,46.558 250.816 C 47.163 250.945,47.290 250.771,47.326 249.761 C 47.372 248.476,47.290 248.315,46.905 248.937 M44.928 253.382 C 44.928 253.780,44.974 254.038,45.030 253.955 C 45.086 253.872,45.328 253.546,45.568 253.231 C 45.918 252.770,45.898 252.657,45.465 252.657 C 45.169 252.657,44.928 252.983,44.928 253.382 M44.189 255.525 C 43.788 256.173,43.531 256.988,43.616 257.337 C 43.702 257.686,43.625 257.971,43.444 257.971 C 43.264 257.971,43.116 258.154,43.116 258.378 C 43.116 258.668,43.265 258.661,43.634 258.354 C 43.919 258.118,44.092 257.609,44.017 257.223 C 43.943 256.837,44.045 256.522,44.245 256.522 C 44.445 256.522,44.504 256.354,44.378 256.149 C 44.230 255.910,44.557 255.849,45.296 255.979 C 46.133 256.127,46.403 256.056,46.290 255.718 C 46.205 255.462,45.904 255.246,45.622 255.237 C 45.340 255.228,45.149 255.024,45.199 254.784 C 45.361 254.007,44.934 254.320,44.189 255.525 M43.207 259.298 C 42.957 259.398,42.754 259.646,42.754 259.847 C 42.754 260.049,42.411 260.696,41.991 261.285 C 41.564 261.885,41.310 262.665,41.414 263.062 C 41.516 263.450,41.433 263.768,41.231 263.768 C 41.025 263.768,40.959 264.147,41.080 264.632 C 41.219 265.187,41.098 265.663,40.741 265.959 C 40.435 266.213,40.271 266.647,40.378 266.925 C 40.484 267.202,40.427 267.340,40.251 267.231 C 39.811 266.959,39.464 267.982,39.747 268.719 C 39.911 269.145,39.844 269.239,39.519 269.038 C 39.204 268.843,39.100 268.955,39.186 269.397 C 39.255 269.751,39.606 270.083,39.966 270.136 C 40.456 270.208,40.525 270.117,40.241 269.775 C 39.762 269.198,40.186 268.726,40.758 269.200 C 41.050 269.443,41.184 269.391,41.184 269.032 C 41.184 268.745,41.066 268.583,40.923 268.671 C 40.779 268.760,40.453 268.581,40.197 268.273 C 39.814 267.811,39.823 267.732,40.247 267.824 C 40.574 267.894,40.803 267.573,40.876 266.938 C 40.939 266.390,41.142 265.942,41.328 265.942 C 41.514 265.942,41.667 265.688,41.667 265.377 C 41.667 265.042,41.837 264.918,42.085 265.071 C 42.373 265.249,42.402 265.171,42.180 264.820 C 41.712 264.083,41.669 261.915,42.128 262.199 C 42.345 262.333,42.394 262.254,42.245 262.013 C 42.090 261.762,42.222 261.594,42.572 261.594 C 42.895 261.594,43.059 261.755,42.937 261.952 C 42.807 262.163,42.965 262.215,43.321 262.078 C 43.845 261.877,43.817 261.788,43.116 261.413 C 42.484 261.075,42.424 260.935,42.842 260.774 C 43.137 260.661,43.467 260.229,43.575 259.813 C 43.684 259.398,43.747 259.071,43.716 259.087 C 43.685 259.102,43.456 259.197,43.207 259.298 M38.768 271.514 C 38.768 271.788,38.524 272.215,38.226 272.462 C 37.257 273.267,36.740 275.664,37.395 276.318 C 37.832 276.755,38.021 276.780,38.238 276.428 C 38.413 276.145,38.370 276.066,38.124 276.218 C 37.908 276.352,37.618 276.277,37.479 276.052 C 37.340 275.828,37.407 275.532,37.628 275.395 C 37.849 275.258,37.958 274.770,37.869 274.310 C 37.737 273.624,37.836 273.507,38.420 273.659 C 38.811 273.762,39.049 273.712,38.949 273.550 C 38.555 272.913,39.188 272.061,39.725 272.506 C 40.134 272.845,40.189 272.812,40.006 272.334 C 39.880 272.007,39.622 271.739,39.433 271.739 C 39.243 271.739,39.188 271.576,39.312 271.377 C 39.435 271.178,39.363 271.014,39.152 271.014 C 38.941 271.014,38.768 271.239,38.768 271.514 M35.698 278.605 C 34.990 279.973,34.997 280.469,35.719 280.192 C 36.181 280.015,36.198 279.912,35.809 279.665 C 35.418 279.417,35.416 279.358,35.800 279.353 C 36.061 279.350,36.174 279.185,36.051 278.986 C 35.928 278.786,36.009 278.623,36.232 278.623 C 36.455 278.623,36.545 278.474,36.432 278.292 C 36.320 278.110,36.432 277.878,36.683 277.777 C 37.029 277.637,37.032 277.587,36.694 277.565 C 36.450 277.549,36.002 278.017,35.698 278.605 M34.783 281.476 C 34.783 281.916,34.434 282.747,34.009 283.322 C 33.542 283.954,33.313 284.666,33.432 285.119 C 33.539 285.532,33.468 285.870,33.273 285.870 C 32.639 285.870,33.132 287.066,33.806 287.165 C 34.280 287.234,34.361 287.140,34.099 286.825 C 33.648 286.281,33.749 285.641,34.516 284.194 C 34.846 283.572,35.014 282.961,34.889 282.836 C 34.764 282.711,34.851 282.609,35.082 282.609 C 35.314 282.609,35.454 282.287,35.394 281.893 C 35.234 280.850,34.783 280.541,34.783 281.476 M32.530 288.315 C 31.415 289.594,30.683 291.642,31.528 291.120 C 31.730 290.994,31.802 290.740,31.687 290.555 C 31.573 290.369,31.661 290.217,31.884 290.217 C 32.107 290.217,32.188 290.054,32.065 289.855 C 31.942 289.656,32.076 289.493,32.364 289.493 C 32.651 289.493,32.964 289.085,33.060 288.587 C 33.266 287.509,33.243 287.498,32.530 288.315 M30.845 292.645 C 30.916 293.323,30.666 294.074,30.152 294.727 C 28.872 296.355,29.027 296.690,30.665 295.836 C 31.662 295.316,31.669 295.294,30.843 295.292 C 30.123 295.290,30.056 295.202,30.431 294.750 C 30.678 294.454,31.019 294.297,31.190 294.403 C 31.361 294.509,31.479 294.011,31.452 293.297 C 31.425 292.583,31.253 291.905,31.069 291.792 C 30.884 291.678,30.784 292.062,30.845 292.645 M326.041 293.372 C 325.172 294.453,324.275 295.299,324.275 295.038 C 324.275 294.762,326.126 292.754,326.380 292.754 C 326.467 292.754,326.314 293.032,326.041 293.372 M29.014 297.586 C 29.030 298.017,29.125 298.166,29.225 297.917 C 29.326 297.668,29.666 297.464,29.982 297.464 C 30.661 297.464,30.288 296.994,29.518 296.881 C 29.183 296.832,28.996 297.093,29.014 297.586 M28.095 300.122 C 27.072 301.869,26.976 302.371,27.592 302.752 C 27.842 302.906,27.913 302.852,27.767 302.617 C 27.634 302.401,27.701 302.115,27.917 301.981 C 28.133 301.848,28.223 301.510,28.116 301.231 C 28.009 300.953,28.089 300.725,28.294 300.725 C 28.498 300.725,28.574 300.576,28.461 300.393 C 28.349 300.211,28.447 299.998,28.680 299.921 C 29.057 299.795,29.484 298.551,29.150 298.551 C 29.076 298.551,28.602 299.258,28.095 300.122 M26.812 303.597 C 26.812 304.048,26.469 304.899,26.049 305.487 C 25.622 306.088,25.368 306.868,25.472 307.264 C 25.574 307.653,25.497 307.971,25.302 307.971 C 24.668 307.971,25.161 309.168,25.835 309.266 C 26.309 309.336,26.390 309.242,26.128 308.926 C 25.650 308.351,25.827 307.281,26.475 306.821 C 26.895 306.523,26.877 306.490,26.377 306.650 C 25.946 306.788,25.822 306.690,25.962 306.324 C 26.073 306.037,26.309 305.891,26.487 306.002 C 26.781 306.183,26.964 305.676,26.855 304.982 C 26.831 304.832,26.974 304.710,27.172 304.710 C 27.370 304.710,27.483 304.388,27.423 303.995 C 27.262 302.940,26.812 302.647,26.812 303.597 M314.493 304.461 C 314.493 304.524,313.963 305.053,313.315 305.639 L 312.138 306.703 313.202 305.525 C 314.194 304.428,314.493 304.181,314.493 304.461 M310.473 309.280 C 309.947 309.914,309.611 309.667,309.916 308.869 C 310.039 308.549,310.312 308.394,310.522 308.524 C 310.785 308.686,310.770 308.923,310.473 309.280 M24.559 310.417 C 23.444 311.695,22.712 313.743,23.557 313.221 C 23.759 313.096,23.831 312.842,23.716 312.656 C 23.602 312.471,23.690 312.319,23.913 312.319 C 24.136 312.319,24.217 312.156,24.094 311.957 C 23.971 311.757,24.124 311.594,24.435 311.594 C 24.764 311.594,25.000 311.282,25.000 310.848 C 25.000 310.377,25.154 310.197,25.418 310.361 C 25.677 310.521,25.738 310.460,25.578 310.201 C 25.244 309.660,25.214 309.666,24.559 310.417 M23.997 313.405 C 23.760 313.786,23.707 314.184,23.879 314.291 C 24.052 314.397,24.287 314.127,24.401 313.689 C 24.673 312.649,24.532 312.549,23.997 313.405 M22.826 314.653 C 22.826 315.660,23.075 315.781,23.913 315.178 C 24.376 314.844,24.366 314.816,23.841 314.984 C 23.426 315.116,23.286 315.021,23.413 314.692 C 23.516 314.424,23.426 314.096,23.213 313.965 C 22.977 313.819,22.826 314.087,22.826 314.653 M21.963 317.054 C 21.241 318.277,21.319 318.617,22.240 318.263 C 22.709 318.083,22.751 317.919,22.429 317.530 C 22.173 317.222,22.155 317.029,22.381 317.029 C 22.583 317.029,22.842 316.784,22.957 316.486 C 23.329 315.516,22.638 315.911,21.963 317.054 M21.014 319.686 C 21.014 320.085,21.061 320.343,21.117 320.260 C 21.173 320.177,21.415 319.851,21.655 319.535 C 22.005 319.074,21.984 318.961,21.552 318.961 C 21.256 318.961,21.014 319.287,21.014 319.686 M20.172 322.142 C 19.101 323.969,19.000 324.469,19.621 324.853 C 19.871 325.008,19.942 324.953,19.796 324.719 C 19.663 324.502,19.730 324.216,19.946 324.083 C 20.162 323.949,20.252 323.612,20.145 323.333 C 20.021 323.011,20.195 322.826,20.619 322.826 C 20.987 322.826,21.504 322.541,21.768 322.192 C 22.176 321.653,22.172 321.626,21.740 322.011 C 21.460 322.260,20.989 322.464,20.692 322.464 C 20.274 322.464,20.302 322.354,20.814 321.979 C 21.178 321.713,21.401 321.268,21.309 320.992 C 21.206 320.684,20.764 321.131,20.172 322.142 M18.841 325.695 C 18.841 326.126,18.527 326.920,18.144 327.460 C 17.158 328.852,16.772 330.873,17.550 330.574 C 17.868 330.452,18.085 330.086,18.032 329.759 C 17.974 329.409,18.183 329.165,18.543 329.162 C 18.878 329.160,19.286 329.011,19.449 328.832 C 19.619 328.646,19.552 328.619,19.293 328.768 C 18.986 328.944,18.842 328.759,18.846 328.192 C 18.850 327.584,18.937 327.490,19.163 327.847 C 19.355 328.149,19.561 328.198,19.699 327.975 C 19.822 327.776,19.658 327.510,19.333 327.385 C 18.788 327.177,18.789 327.106,19.344 326.494 C 19.881 325.900,19.887 325.780,19.393 325.370 C 18.927 324.983,18.841 325.034,18.841 325.695 M17.210 331.437 C 16.141 332.222,14.857 335.507,15.618 335.507 C 15.839 335.507,15.926 335.263,15.811 334.964 C 15.696 334.665,15.770 334.420,15.975 334.420 C 16.180 334.420,16.229 334.230,16.085 333.996 C 15.909 333.711,16.021 333.648,16.426 333.804 C 16.758 333.931,17.029 333.877,17.029 333.684 C 17.029 333.491,16.825 333.328,16.576 333.322 C 16.325 333.316,16.405 333.147,16.757 332.942 C 17.106 332.739,17.391 332.327,17.391 332.026 C 17.391 331.705,17.564 331.586,17.810 331.737 C 18.069 331.898,18.130 331.837,17.969 331.578 C 17.668 331.089,17.680 331.092,17.210 331.437 M120.907 332.850 C 121.015 333.134,120.843 333.333,120.488 333.333 C 120.124 333.333,119.987 333.167,120.143 332.915 C 120.305 332.654,120.243 332.595,119.978 332.759 C 119.224 333.224,119.933 333.696,121.385 333.696 C 122.487 333.696,122.893 333.515,123.220 332.880 C 123.566 332.208,123.556 332.144,123.160 332.518 C 122.630 333.019,121.224 333.149,121.521 332.669 C 121.623 332.503,121.485 332.367,121.214 332.367 C 120.943 332.367,120.805 332.585,120.907 332.850 M125.725 332.790 L 124.819 333.308 126.087 333.315 C 126.937 333.320,127.192 333.219,126.861 333.009 C 126.444 332.745,126.444 332.666,126.861 332.500 C 127.133 332.392,127.192 332.296,126.993 332.288 C 126.793 332.279,126.223 332.505,125.725 332.790 M117.950 333.671 C 117.836 333.856,117.908 334.110,118.110 334.235 C 118.542 334.503,119.203 334.164,119.203 333.674 C 119.203 333.233,118.222 333.231,117.950 333.671 M116.898 334.239 C 117.013 334.538,116.926 334.783,116.705 334.783 C 116.485 334.783,116.304 334.620,116.304 334.420 C 116.304 334.221,116.141 334.058,115.942 334.058 C 115.743 334.058,115.580 334.303,115.580 334.601 C 115.580 335.166,116.209 335.298,117.158 334.934 C 117.712 334.721,117.583 333.696,117.002 333.696 C 116.830 333.696,116.783 333.940,116.898 334.239 M111.631 334.557 C 111.150 335.137,112.061 335.494,114.040 335.502 C 115.166 335.507,115.190 335.479,114.583 334.858 C 114.036 334.299,113.894 334.282,113.549 334.736 C 113.106 335.318,111.766 335.021,112.136 334.423 C 112.469 333.884,112.110 333.980,111.631 334.557 M109.930 334.780 C 109.732 334.979,109.140 335.176,108.615 335.220 C 108.090 335.263,107.740 335.427,107.837 335.584 C 108.164 336.113,109.415 335.875,110.145 335.145 C 110.543 334.746,110.739 334.420,110.580 334.420 C 110.420 334.420,110.128 334.582,109.930 334.780 M106.756 335.697 C 106.929 336.147,106.875 336.269,106.583 336.089 C 106.350 335.945,106.159 335.999,106.159 336.211 C 106.159 336.422,105.987 336.594,105.776 336.594 C 105.565 336.594,105.507 336.390,105.648 336.141 C 105.851 335.782,105.804 335.781,105.422 336.135 C 104.636 336.864,105.354 337.126,106.564 336.553 C 107.572 336.076,107.626 335.972,107.095 335.532 C 106.581 335.106,106.538 335.127,106.756 335.697 M14.855 336.830 C 14.855 337.413,15.056 337.621,15.580 337.582 C 15.978 337.552,16.304 337.381,16.304 337.203 C 16.304 337.025,16.068 336.970,15.779 337.080 C 15.429 337.215,15.321 337.108,15.455 336.759 C 15.565 336.471,15.802 336.326,15.980 336.437 C 16.158 336.547,16.304 336.474,16.304 336.276 C 16.304 336.077,15.978 335.939,15.580 335.969 C 15.089 336.006,14.855 336.284,14.855 336.830 M98.422 336.781 C 98.553 337.124,98.410 337.319,98.025 337.319 C 97.661 337.319,97.524 337.153,97.680 336.901 C 97.840 336.641,97.779 336.581,97.520 336.741 C 96.648 337.280,97.160 337.681,98.719 337.681 C 99.978 337.681,100.425 337.517,100.734 336.940 C 101.100 336.255,101.073 336.234,100.384 336.665 C 99.791 337.035,99.491 337.039,98.926 336.687 C 98.332 336.315,98.249 336.331,98.422 336.781 M102.899 336.957 C 102.491 337.220,102.672 337.308,103.623 337.308 C 104.574 337.308,104.755 337.220,104.348 336.957 C 104.049 336.763,103.723 336.605,103.623 336.605 C 103.524 336.605,103.197 336.763,102.899 336.957 M96.014 337.681 C 96.014 337.904,95.851 337.985,95.652 337.862 C 95.453 337.739,95.287 337.852,95.284 338.113 C 95.280 338.458,95.186 338.440,94.937 338.047 C 94.646 337.586,94.526 337.581,94.127 338.009 C 93.778 338.385,93.774 338.447,94.112 338.256 C 94.361 338.116,94.565 338.173,94.565 338.384 C 94.565 338.895,94.088 338.871,93.551 338.333 C 93.213 337.995,93.116 338.035,93.116 338.514 C 93.116 339.306,94.047 339.280,95.614 338.445 C 96.381 338.036,96.688 337.693,96.430 337.533 C 96.201 337.392,96.014 337.458,96.014 337.681 M13.982 338.859 C 13.233 340.016,12.872 341.667,13.367 341.667 C 13.587 341.667,13.784 341.544,13.804 341.395 C 13.824 341.245,13.880 340.673,13.930 340.122 C 13.979 339.572,14.152 339.001,14.314 338.854 C 14.476 338.707,14.506 338.872,14.381 339.221 C 14.256 339.570,14.292 339.855,14.462 339.855 C 14.632 339.855,14.849 339.447,14.944 338.949 C 15.159 337.823,14.681 337.778,13.982 338.859 M83.162 338.698 C 83.068 338.792,83.073 339.002,83.174 339.165 C 83.382 339.502,84.420 339.190,84.420 338.790 C 84.420 338.499,83.433 338.427,83.162 338.698 M87.889 338.725 C 87.567 339.245,85.727 339.460,85.215 339.037 C 84.861 338.744,84.770 338.775,84.853 339.160 C 84.914 339.443,84.755 339.632,84.501 339.580 C 84.246 339.528,83.943 339.732,83.828 340.033 C 83.713 340.334,83.463 340.580,83.273 340.580 C 83.083 340.580,83.043 340.376,83.184 340.127 C 83.381 339.778,83.334 339.772,82.980 340.098 C 82.727 340.332,82.255 340.439,81.930 340.336 C 81.416 340.173,81.410 340.203,81.884 340.569 C 82.340 340.922,82.311 340.958,81.703 340.793 C 81.304 340.685,80.734 340.753,80.435 340.945 C 79.427 341.591,81.778 341.348,83.964 340.580 C 85.098 340.181,86.291 339.855,86.616 339.855 C 86.941 339.855,87.502 339.529,87.862 339.130 C 88.223 338.732,88.421 338.406,88.302 338.406 C 88.183 338.406,87.998 338.549,87.889 338.725 M90.761 339.130 C 90.192 339.375,90.347 339.446,91.486 339.462 C 92.549 339.476,92.790 339.388,92.391 339.130 C 91.757 338.721,91.714 338.721,90.761 339.130 M76.041 340.703 C 76.666 341.459,75.078 341.597,74.326 340.851 C 73.961 340.488,73.918 340.524,74.112 341.033 C 74.485 342.015,77.732 341.931,78.270 340.925 C 78.636 340.241,78.609 340.220,77.920 340.650 C 77.306 341.034,77.030 341.026,76.359 340.609 C 75.613 340.144,75.586 340.152,76.041 340.703 M72.624 341.282 C 73.085 341.790,73.127 342.024,72.794 342.230 C 72.511 342.405,72.445 342.352,72.610 342.085 C 73.052 341.370,71.893 341.621,71.196 342.391 C 70.351 343.325,71.199 343.414,72.844 342.563 C 74.156 341.885,74.177 341.611,72.960 341.046 C 72.050 340.623,72.037 340.632,72.624 341.282 M13.648 342.120 C 12.815 342.730,11.257 346.019,11.500 346.655 C 11.775 347.370,12.297 346.482,12.126 345.592 C 12.050 345.196,12.209 344.928,12.521 344.928 C 12.808 344.928,13.024 344.805,13.001 344.656 C 12.977 344.506,12.997 344.262,13.046 344.112 C 13.195 343.654,13.313 343.135,13.361 342.732 C 13.385 342.521,13.552 342.439,13.730 342.549 C 13.909 342.659,14.148 342.506,14.262 342.208 C 14.515 341.550,14.443 341.539,13.648 342.120 M68.987 342.085 C 68.833 342.335,68.887 342.405,69.122 342.260 C 69.338 342.127,69.607 342.165,69.719 342.347 C 69.960 342.738,68.239 343.235,67.731 342.921 C 67.538 342.801,67.495 342.511,67.636 342.276 C 67.777 342.040,67.601 342.085,67.245 342.374 C 66.623 342.879,66.624 342.911,67.266 343.164 C 68.861 343.792,70.145 343.528,70.145 342.572 C 70.145 341.639,69.445 341.344,68.987 342.085 M61.957 342.311 C 61.957 342.554,61.753 342.713,61.504 342.663 C 61.205 342.603,61.085 342.943,61.152 343.659 C 61.227 344.468,61.162 344.610,60.899 344.213 C 60.596 343.755,60.513 343.768,60.307 344.304 C 60.175 344.647,59.912 344.928,59.722 344.928 C 59.533 344.928,59.461 344.792,59.564 344.626 C 59.667 344.460,59.520 344.324,59.239 344.324 C 58.957 344.324,58.643 344.541,58.541 344.807 C 58.313 345.401,59.254 345.437,60.815 344.892 C 61.442 344.674,61.866 344.349,61.756 344.172 C 61.646 343.994,61.810 343.946,62.119 344.065 C 62.428 344.183,62.681 344.123,62.681 343.930 C 62.681 343.737,63.081 343.655,63.571 343.749 C 64.132 343.856,64.818 343.637,65.431 343.155 C 65.965 342.735,66.250 342.391,66.063 342.391 C 65.877 342.391,65.525 342.591,65.281 342.835 C 64.933 343.183,64.685 343.184,64.135 342.840 C 63.550 342.475,63.467 342.492,63.639 342.940 C 63.957 343.769,63.154 343.577,62.521 342.673 C 62.210 342.230,61.957 342.067,61.957 342.311 M56.159 344.488 C 56.159 345.089,53.823 345.422,52.937 344.948 C 52.472 344.699,52.174 344.679,52.174 344.896 C 52.174 345.092,51.602 345.197,50.903 345.129 C 50.204 345.061,49.527 345.177,49.398 345.385 C 49.250 345.623,49.342 345.654,49.643 345.468 C 49.996 345.249,50.059 345.338,49.880 345.804 C 49.747 346.151,49.638 346.504,49.638 346.588 C 49.638 346.671,49.465 346.739,49.254 346.739 C 49.043 346.739,48.985 346.535,49.126 346.286 C 49.329 345.927,49.282 345.925,48.900 346.280 C 48.635 346.526,48.526 346.835,48.657 346.967 C 48.949 347.258,52.174 346.070,52.174 345.671 C 52.174 345.514,53.356 345.471,54.800 345.575 C 57.339 345.756,57.409 345.739,56.896 345.073 C 56.603 344.694,56.318 344.316,56.262 344.233 C 56.206 344.150,56.159 344.265,56.159 344.488 M48.545 345.300 C 48.329 345.704,47.972 345.924,47.752 345.787 C 47.510 345.638,47.454 345.706,47.611 345.959 C 47.770 346.216,47.487 346.524,46.880 346.755 C 45.710 347.199,44.762 346.943,45.155 346.289 C 45.325 346.006,45.184 346.033,44.781 346.360 C 44.159 346.864,44.160 346.897,44.802 347.150 C 45.764 347.528,47.905 347.523,47.670 347.143 C 47.561 346.966,47.723 346.612,48.031 346.357 C 48.633 345.858,49.418 344.565,49.120 344.565 C 49.020 344.565,48.762 344.896,48.545 345.300 M41.908 347.109 C 41.343 347.279,40.651 347.329,40.371 347.222 C 40.091 347.114,39.761 347.287,39.639 347.605 C 39.517 347.924,39.271 348.094,39.092 347.984 C 38.914 347.874,38.766 347.997,38.763 348.258 C 38.758 348.608,38.669 348.592,38.420 348.199 C 38.235 347.906,37.963 347.786,37.816 347.933 C 37.110 348.639,38.436 349.052,39.462 348.446 C 40.038 348.105,40.914 347.826,41.406 347.826 C 41.899 347.826,42.506 347.582,42.754 347.283 C 43.002 346.984,43.144 346.753,43.070 346.770 C 42.996 346.787,42.473 346.940,41.908 347.109 M11.497 348.423 C 10.591 349.862,12.877 352.899,14.866 352.899 C 16.102 352.899,17.806 352.189,17.553 351.780 C 17.455 351.622,17.916 351.580,18.578 351.687 C 19.386 351.819,19.924 351.709,20.219 351.353 C 20.590 350.907,20.508 350.853,19.696 351.008 C 19.118 351.118,18.821 351.050,18.952 350.838 C 19.072 350.643,18.949 350.483,18.678 350.483 C 18.396 350.483,18.271 350.708,18.387 351.008 C 18.553 351.441,18.451 351.460,17.809 351.116 C 17.117 350.746,17.028 350.793,17.016 351.527 L 17.003 352.355 16.448 351.449 C 16.142 350.951,15.980 350.829,16.087 351.178 C 16.194 351.526,16.114 351.812,15.909 351.812 C 15.704 351.812,15.638 351.975,15.761 352.174 C 15.889 352.382,15.563 352.536,14.997 352.536 C 14.454 352.536,14.117 352.429,14.248 352.298 C 14.734 351.812,13.707 351.049,13.168 351.496 C 12.761 351.834,12.713 351.788,12.917 351.256 C 13.114 350.743,13.036 350.650,12.563 350.832 C 12.225 350.961,11.957 350.890,11.957 350.671 C 11.957 350.455,12.282 350.363,12.681 350.467 C 13.079 350.571,13.496 350.509,13.608 350.328 C 13.720 350.148,13.403 350.000,12.905 350.000 C 12.407 350.000,11.908 349.852,11.796 349.671 C 11.685 349.491,11.879 349.386,12.228 349.438 C 12.577 349.491,12.669 349.466,12.432 349.382 C 12.195 349.299,11.946 348.956,11.880 348.619 C 11.799 348.210,11.672 348.145,11.497 348.423 M34.064 348.436 C 34.055 349.099,32.766 349.353,31.369 348.967 C 30.399 348.699,30.008 348.736,29.685 349.124 C 29.455 349.402,29.120 349.540,28.942 349.430 C 28.764 349.319,28.520 349.484,28.401 349.796 C 28.281 350.107,28.028 350.362,27.838 350.362 C 27.649 350.362,27.597 350.159,27.723 349.909 C 27.849 349.660,27.718 349.742,27.433 350.091 C 26.836 350.818,26.280 350.949,26.662 350.272 C 26.865 349.912,26.819 349.911,26.436 350.266 C 26.171 350.511,26.058 350.816,26.184 350.942 C 26.530 351.288,30.040 349.932,29.961 349.483 C 29.922 349.269,30.136 349.160,30.435 349.241 C 31.716 349.586,35.669 349.669,35.193 349.340 C 34.920 349.152,34.556 348.776,34.383 348.503 C 34.178 348.179,34.067 348.156,34.064 348.436 M36.594 348.732 C 36.218 349.186,36.268 349.275,36.901 349.275 C 37.425 349.275,37.594 349.108,37.450 348.732 C 37.335 348.433,37.197 348.188,37.143 348.188 C 37.089 348.188,36.842 348.433,36.594 348.732 M187.862 348.913 C 187.739 349.112,187.200 349.264,186.663 349.250 C 185.793 349.227,185.766 349.191,186.413 348.913 C 187.420 348.480,188.130 348.480,187.862 348.913 M219.638 349.028 C 218.713 349.241,217.949 349.253,217.755 349.059 C 217.561 348.865,218.194 348.720,219.312 348.701 L 221.196 348.671 219.638 349.028 M25.902 349.644 C 25.777 349.846,25.498 349.902,25.281 349.769 C 25.046 349.624,24.992 349.694,25.147 349.945 C 25.306 350.202,25.023 350.509,24.416 350.740 C 23.246 351.185,22.298 350.929,22.692 350.274 C 22.862 349.991,22.720 350.018,22.317 350.345 C 21.696 350.850,21.696 350.883,22.338 351.135 C 23.194 351.472,25.562 351.528,25.238 351.204 C 25.104 351.070,25.349 350.581,25.784 350.117 C 26.220 349.654,26.475 349.275,26.353 349.275 C 26.230 349.275,26.027 349.441,25.902 349.644 " stroke="none" fill="#64b4f4" fill-rule="evenodd"></path></g></svg>